<svg xmlns="http://www.w3.org/2000/svg" viewBox="0 0 24 24" fill="#FF6B6B">
  <!-- Robot head -->
  <rect x="6" y="4" width="12" height="10" rx="2" fill="#FF6B6B" stroke="#333" stroke-width="0.5"/>
  
  <!-- Eyes -->
  <circle cx="9" cy="8" r="1.5" fill="#FFF"/>
  <circle cx="15" cy="8" r="1.5" fill="#FFF"/>
  <circle cx="9" cy="8" r="0.7" fill="#333"/>
  <circle cx="15" cy="8" r="0.7" fill="#333"/>
  
  <!-- Mouth -->
  <rect x="10" y="11" width="4" height="1" rx="0.5" fill="#333"/>
  
  <!-- Antenna -->
  <circle cx="12" cy="2" r="1" fill="#FFD93D"/>
  <line x1="12" y1="3" x2="12" y2="4" stroke="#333" stroke-width="1"/>
  
  <!-- Body -->
  <rect x="8" y="14" width="8" height="6" rx="1" fill="#4ECDC4" stroke="#333" stroke-width="0.5"/>
  
  <!-- Chat bubble -->
  <ellipse cx="19" cy="9" rx="3" ry="2" fill="#FFF" stroke="#333" stroke-width="0.5"/>
  <path d="M17 10 L16 11 L17 11 Z" fill="#FFF" stroke="#333" stroke-width="0.5"/>
  
  <!-- Chat dots -->
  <circle cx="18" cy="8.5" r="0.3" fill="#333"/>
  <circle cx="19" cy="8.5" r="0.3" fill="#333"/>
  <circle cx="20" cy="8.5" r="0.3" fill="#333"/>
  
  <!-- Enhancement indicators -->
  <circle cx="4" cy="6" r="1" fill="#FFD93D" opacity="0.8"/>
  <text x="4" y="6.5" text-anchor="middle" font-size="0.8" fill="#333" font-weight="bold">+</text>
  
  <circle cx="4" cy="12" r="1" fill="#FFD93D" opacity="0.8"/>
  <text x="4" y="12.5" text-anchor="middle" font-size="0.8" fill="#333" font-weight="bold">⚡</text>
  
  <circle cx="4" cy="18" r="1" fill="#FFD93D" opacity="0.8"/>
  <text x="4" y="18.5" text-anchor="middle" font-size="0.8" fill="#333" font-weight="bold">🧠</text>
</svg>