<svg xmlns="http://www.w3.org/2000/svg" viewBox="0 0 24 24" fill="#DC382D">
  <path d="M12 2C8.686 2 6 3.343 6 5v1.5c0 .828.897 1.586 2.343 2.086L12 9.5l3.657-.914C17.103 8.086 18 7.328 18 6.5V5c0-1.657-2.686-3-6-3z"/>
  <path d="M6 8.5v3c0 .828.897 1.586 2.343 2.086L12 14.5l3.657-.914C17.103 13.086 18 12.328 18 11.5v-3c-.318.273-.686.522-1.086.742L12 10.5l-4.914-1.258C6.686 9.022 6.318 8.773 6 8.5z"/>
  <path d="M6 13.5v3c0 .828.897 1.586 2.343 2.086L12 19.5l3.657-.914C17.103 18.086 18 17.328 18 16.5v-3c-.318.273-.686.522-1.086.742L12 15.5l-4.914-1.258C6.686 14.022 6.318 13.773 6 13.5z"/>
  <path d="M6 18.5v1c0 1.657 2.686 3 6 3s6-1.343 6-3v-1c-.318.273-.686.522-1.086.742L12 20.5l-4.914-1.258C6.686 19.022 6.318 18.773 6 18.5z"/>
</svg>